# xmcd
# 
# Track frame offsets:
#     150
#     18038
#     35588
#     57003
#     105552
#     128857
#     154143
#     177020
#     209271
#     241449
#     262474
#     284394
#     333515
# 
# Disc length: 4649
# 
# Revision: 20
# Processed by: cddbd v1.5.2PL0 Copyright (c) Steve Scherf et al.
# Submitted via: fre:ac v1.0.31
# 
DISCID=b812270d
DTITLE=Television - Marquee Moon
DYEAR=1977
DGENRE=Proto Punk/Garage
TTITLE0=See No Evil
TTITLE1=Venus
TTITLE2=Friction
TTITLE3=Marquee Moon
TTITLE4=Elevation
TTITLE5=Guiding Light
TTITLE6=Prove It
TTITLE7=Torn Curtain
TTITLE8=Little Johnny Jewel (Parts 1 &2)
TTITLE9=See No Evil (Alternate Version)
TTITLE10=Friction (Alternate Version)
TTITLE11=Marquee Moon (Alternate Version)
TTITLE12=Untitled Instrumental
EXTD=
EXTT0=
EXTT1=
EXTT2=
EXTT3=
EXTT4=
EXTT5=
EXTT6=
EXTT7=
EXTT8=
EXTT9=
EXTT10=
EXTT11=
EXTT12=
PLAYORDER=
